# xmcd
#
# Track frame offsets: 
#        150
#        11495
#        22740
#        33426
#        49533
#        62939
#        78392
#        94519
#        106705
#        121692
#        136673
#        149681
#        163172
#        175916
#        196493
#
# Disc length: 2844 seconds
#
# Revision: 0
# Processed by: cddbd v1.5.2PL0 Copyright (c) Steve Scherf et al.
# Submitted via: ExactAudioCopy v0.95b4
#
DISCID=b90b1a0f
DTITLE=Various Artist - Denim
DYEAR=1981
DGENRE=
TTITLE0=Willie Nelson - On the Road Again
TTITLE1=Hank Williams, Jr. - Texas Women
TTITLE2=Janie Fricke - Pride
TTITLE3=Sylvia - The Matador
TTITLE4=Gene Watson - Between This Time and the Next Time
TTITLE5=Razzy Bailey - Friends
TTITLE6=Mickey Gilley - A Headache Tomorrow (Or a Heartache Tonight)
TTITLE7=Anne Murray - Blessed are the Believers
TTITLE8=Rosanne Cash - Seven Year Ache
TTITLE9=Earl Thomas Conley - Fire and Smoke
TTITLE10=Don Williams - Falling Again
TTITLE11=Terri Gibbs - Somebody's Knockin'
TTITLE12=Larry Gatlin - Take Me To Your Lovin' Place
TTITLE13=Conway Twitty - Rest Your Love On Me
TTITLE14=Don McLean - Crying
EXTD=
EXTT0=
EXTT1=
EXTT2=
EXTT3=
EXTT4=
EXTT5=
EXTT6=
EXTT7=
EXTT8=
EXTT9=
EXTT10=
EXTT11=
EXTT12=
EXTT13=
EXTT14=
PLAYORDER=
